<svg xmlns="http://www.w3.org/2000/svg" viewBox="0 0 512 512"><defs><style>.cls-1{fill:#fff;}.cls-2{fill:none;}</style></defs><title>BusinzesdsAsset 4gt</title><g id="Layer_2" data-name="Layer 2"><g id="Layer_1-2" data-name="Layer 1"><path class="cls-1" d="M436.66,475.61h-2.09c0-13.18.08-24.81,0-36.43-.56-67.42-1.28-134.83-1.62-202.25a45,45,0,0,0-12.65-31.67c-16.71-17.63-34.27-34.47-51.39-51.71C358.4,143,345.42,140.19,331,140.14c-54.49-.17-109-.75-163.46-1.13-17.23-.11-34.51-.9-51.69.1-21,1.25-30.69,12.69-30.67,33.54q.09,148.71.11,297.39c0,2.43,0,4.85,0,7.21ZM291.45,417.92c-38.09-.1-76.19.29-114.28.24a43.4,43.4,0,0,1-15.23-2.35c-8.33-3.18-12-12-10.31-21.29,1.68-9,7.51-13.22,16.12-13.31,21.82-.22,43.63-.07,65.45-.07v.12c20,0,40-.08,59.94,0,14,.08,21.68,6.84,21.3,18.36C314.06,411,304.71,418,291.45,417.92ZM348,344.44c-29.82.18-59.63.05-89.45.05v1.85q-43.78,0-87.56,0c-11.74,0-18.49-6.15-18.65-16.76-.16-10.91,6-17.46,17.94-17.54q87.61-.6,175.21-.66c7.66,0,14.84,2.18,18.36,9.88C369.27,333.05,361.59,344.36,348,344.44ZM166.2,244.76c30.48-.1,61,0,91.42,0v-.4q44.33,0,88.64,0c12.58,0,18,4.51,18.21,15.4.26,11.57-4.85,16.47-18,16.51q-88.18.27-176.37.35c-8.42,0-16-.84-19-10.7C147.45,253.79,153.64,244.8,166.2,244.76Z"/><path d="M510.35,437.77c-3.94,23-18.82,36.36-41.92,37.72-10.09.6-20.26.17-31.77.12h-2.09c0-13.18.08-24.81,0-36.43-.56-67.42-1.28-134.83-1.62-202.25a45,45,0,0,0-12.65-31.67c-16.71-17.63-34.27-34.47-51.39-51.71C358.4,143,345.42,140.19,331,140.14c-54.49-.17-109-.75-163.46-1.13-17.23-.11-34.51-.9-51.69.1-21,1.25-30.69,12.69-30.67,33.54q.09,148.71.11,297.39c0,2.43,0,4.85,0,7.21v0c-16.42,0-32.47,1.59-48.08-.38C14.13,474,.4,456.27.36,432.36Q.21,310.92.29,189.47c0-37.56.85-75.14-.26-112.67-.89-29.42,19.65-42,40.59-42.29,64-.78,128.08-.17,192.11,0,8.15,0,14.67,3.32,19.61,10.12,7.06,9.69,14.71,19,21.79,28.62,8.22,11.23,18.65,16.5,33,16.5,52.33,0,104.66.72,157,1.38,29.33.36,45.93,17.52,46.12,46.71Q511,275.43,512,413A140.94,140.94,0,0,1,510.35,437.77Z"/><path d="M258.56,346.35q-43.78,0-87.57,0c-11.73,0-18.48-6.15-18.64-16.77-.17-10.91,6-17.44,17.94-17.53q87.6-.6,175.21-.66c7.66,0,14.83,2.18,18.36,9.88,5.41,11.81-2.27,23.12-15.85,23.2-29.81.16-59.63.05-89.44.05Z"/><path d="M257.62,244.33q44.33,0,88.65,0c12.57,0,18,4.5,18.2,15.41.26,11.56-4.85,16.46-18,16.5q-88.18.27-176.37.35c-8.42,0-16-.85-19-10.7-3.63-12.09,2.55-21.08,15.12-21.12,30.47-.09,61,0,91.42,0Z"/><path d="M233.2,381.26c20,0,40-.08,59.94,0,14,.08,21.68,6.84,21.3,18.35s-9.72,18.32-23,18.28c-38.09-.1-76.18.29-114.27.24a43.62,43.62,0,0,1-15.24-2.35c-8.33-3.18-12.05-12-10.31-21.29,1.68-9,7.5-13.22,16.12-13.31,21.82-.22,43.64-.07,65.45-.07Z"/><polyline class="cls-2" points="438.23 475.6 436.66 475.61 85.32 477.25 85.29 477.25"/><rect class="cls-2" width="512" height="512"/></g></g></svg>